<?xml version="1.0" standalone="no"?>
<!DOCTYPE svg PUBLIC "-//W3C//DTD SVG 20010904//EN"
 "http://www.w3.org/TR/2001/REC-SVG-20010904/DTD/svg10.dtd">
<svg version="1.0" xmlns="http://www.w3.org/2000/svg"
 width="512.000000pt" height="512.000000pt" viewBox="0 0 512.000000 512.000000"
 preserveAspectRatio="xMidYMid meet">
<metadata>
Created by potrace 1.14, written by Peter Selinger 2001-2017
</metadata>
<g transform="translate(0.000000,512.000000) scale(0.100000,-0.100000)"
fill="#000000" stroke="none">
<path d="M2439 5116 c-2 -2 -35 -7 -74 -10 -38 -4 -117 -16 -174 -27 -655
-124 -1058 -407 -1211 -849 -12 -36 -23 -72 -25 -80 -22 -91 -36 -165 -41
-215 -3 -33 -8 -71 -10 -85 -5 -32 -5 -325 1 -405 2 -33 6 -104 10 -158 3 -54
7 -112 10 -130 2 -17 6 -60 9 -94 l6 -63 -39 -24 c-74 -47 -139 -141 -165
-241 -69 -264 98 -530 338 -539 39 -2 81 1 93 5 20 7 24 4 34 -34 129 -492
458 -837 907 -953 l72 -18 0 -137 0 -137 -37 -6 c-155 -28 -441 -114 -586
-177 -298 -129 -491 -251 -655 -412 -107 -105 -182 -230 -182 -302 l0 -25
1841 0 1842 0 -6 40 c-12 90 -97 217 -219 325 -92 81 -84 75 -160 128 -205
142 -474 268 -743 348 -55 16 -113 33 -130 39 -16 5 -69 17 -117 26 l-88 17 0
137 0 136 73 19 c133 34 288 104 395 177 235 162 426 452 512 776 6 23 14 41
18 38 24 -14 119 -15 173 -2 259 67 375 413 219 656 -30 46 -94 113 -118 121
-7 3 -4 34 9 94 70 327 82 639 35 888 -58 301 -199 511 -430 637 -33 18 -82
56 -110 84 -197 199 -513 358 -811 406 -33 5 -71 12 -85 15 -28 6 -376 16
-381 11z"/>
</g>
</svg>
